<svg xmlns="http://www.w3.org/2000/svg" viewBox="0 0 197.03 35.67"><defs><style>.cls-1{fill:red;}</style></defs><title>politicoin</title><g id="Layer_2" data-name="Layer 2"><g id="Layer_1-2" data-name="Layer 1"><path class="cls-1" d="M7.2,0H22.64a14.66,14.66,0,0,1,6.08,1.08,9.59,9.59,0,0,1,3.63,2.69A9.16,9.16,0,0,1,34.08,7.3a15,15,0,0,1,.46,3.53,14.72,14.72,0,0,1-.46,3.5,9.18,9.18,0,0,1-1.74,3.5,9.39,9.39,0,0,1-3.63,2.67,15,15,0,0,1-6.08,1.05H13.33V35H0V29.69H7.2Zm6.12,16.56h9a8,8,0,0,0,2.11-.29,6.06,6.06,0,0,0,2-1,4.89,4.89,0,0,0,1.47-1.76,6,6,0,0,0,.56-2.77,7.16,7.16,0,0,0-.49-2.84,4.54,4.54,0,0,0-1.32-1.79,4.7,4.7,0,0,0-1.91-.91A10.33,10.33,0,0,0,22.39,5H13.33Z"/><path class="cls-1" d="M49.24,35.67a13.8,13.8,0,0,1-5.41-1,11.54,11.54,0,0,1-4-2.77,11.82,11.82,0,0,1-2.5-4.21,16.23,16.23,0,0,1-.86-5.39A16.08,16.08,0,0,1,37.31,17a11.84,11.84,0,0,1,2.5-4.21,11.55,11.55,0,0,1,4-2.77,15.1,15.1,0,0,1,10.83,0,11.56,11.56,0,0,1,4,2.77A11.87,11.87,0,0,1,61.18,17,16.08,16.08,0,0,1,62,22.29a16.23,16.23,0,0,1-.86,5.39,11.85,11.85,0,0,1-2.5,4.21,11.55,11.55,0,0,1-4,2.77A13.81,13.81,0,0,1,49.24,35.67Zm0-4.41a6.4,6.4,0,0,0,3.23-.78,6.81,6.81,0,0,0,2.25-2.06A9,9,0,0,0,56,25.55a12.87,12.87,0,0,0,0-6.49,8.68,8.68,0,0,0-1.3-2.87,6.94,6.94,0,0,0-2.25-2,7.07,7.07,0,0,0-6.47,0,6.93,6.93,0,0,0-2.25,2,8.64,8.64,0,0,0-1.3,2.87,12.84,12.84,0,0,0,0,6.49,9,9,0,0,0,1.3,2.87A6.8,6.8,0,0,0,46,30.48,6.4,6.4,0,0,0,49.24,31.26Z"/><path class="cls-1" d="M65.37,0H71V35H65.37Z"/><path class="cls-1" d="M75.7,0h5.59V5.29H75.7Zm0,9.65h5.59V35H75.7Z"/><path class="cls-1" d="M83.35,9.65h4.21V2.06h5.59V9.65h5v4.17h-5V27.34a13.52,13.52,0,0,0,.07,1.52,2.62,2.62,0,0,0,.34,1.08,1.64,1.64,0,0,0,.81.66,4,4,0,0,0,1.47.22l1.18,0a5.82,5.82,0,0,0,1.18-.17v4.31l-1.81.2a16.63,16.63,0,0,1-1.81.1A12.41,12.41,0,0,1,91,34.81a4.74,4.74,0,0,1-2.11-1.23,4.21,4.21,0,0,1-1-2,15.08,15.08,0,0,1-.32-2.79V13.82H83.35Z"/><path class="cls-1" d="M100.89,0h5.59V5.29h-5.59Zm0,9.65h5.59V35h-5.59Z"/><path class="cls-1" d="M128.18,18.13a5.24,5.24,0,0,0-1.89-3.55,6.16,6.16,0,0,0-3.9-1.2,8,8,0,0,0-2.3.37,5.47,5.47,0,0,0-2.25,1.37,7.68,7.68,0,0,0-1.71,2.79,13.28,13.28,0,0,0-.69,4.68,13.69,13.69,0,0,0,.37,3.14A8.55,8.55,0,0,0,117,28.52a6.35,6.35,0,0,0,2.08,2,5.92,5.92,0,0,0,3.09.76,5.62,5.62,0,0,0,4-1.52,7.06,7.06,0,0,0,2-4.26h5.59A12.27,12.27,0,0,1,130,33a11.44,11.44,0,0,1-7.87,2.62,13,13,0,0,1-5.27-1A11.15,11.15,0,0,1,113,31.92a11.63,11.63,0,0,1-2.38-4.14,16.17,16.17,0,0,1-.81-5.19,17.75,17.75,0,0,1,.78-5.34A12.22,12.22,0,0,1,113,12.91a11,11,0,0,1,3.9-2.89A13.15,13.15,0,0,1,122.35,9a15.3,15.3,0,0,1,4.19.56,11.05,11.05,0,0,1,3.53,1.69,9,9,0,0,1,2.52,2.84,9.74,9.74,0,0,1,1.18,4.07Z"/><path class="cls-1" d="M148.47,35.67a13.8,13.8,0,0,1-5.41-1,11.54,11.54,0,0,1-4-2.77,11.82,11.82,0,0,1-2.5-4.21,16.23,16.23,0,0,1-.86-5.39,16.08,16.08,0,0,1,.86-5.34,11.84,11.84,0,0,1,2.5-4.21,11.55,11.55,0,0,1,4-2.77,15.1,15.1,0,0,1,10.83,0,11.56,11.56,0,0,1,4,2.77A11.87,11.87,0,0,1,160.4,17a16.08,16.08,0,0,1,.86,5.34,16.23,16.23,0,0,1-.86,5.39,11.85,11.85,0,0,1-2.5,4.21,11.55,11.55,0,0,1-4,2.77A13.81,13.81,0,0,1,148.47,35.67Zm0-4.41a6.4,6.4,0,0,0,3.23-.78A6.81,6.81,0,0,0,154,28.42a9,9,0,0,0,1.3-2.87,12.87,12.87,0,0,0,0-6.49,8.68,8.68,0,0,0-1.3-2.87,6.94,6.94,0,0,0-2.25-2,7.07,7.07,0,0,0-6.47,0,6.93,6.93,0,0,0-2.25,2,8.64,8.64,0,0,0-1.3,2.87,12.84,12.84,0,0,0,0,6.49,9,9,0,0,0,1.3,2.87,6.8,6.8,0,0,0,2.25,2.06A6.4,6.4,0,0,0,148.47,31.26Z"/><path class="cls-1" d="M164.59,0h5.59V5.29h-5.59Zm0,9.65h5.59V35h-5.59Z"/><path class="cls-1" d="M174.78,9.65h5.29v3.72l.1.1a9.37,9.37,0,0,1,3.33-3.31A8.88,8.88,0,0,1,188.06,9a9.47,9.47,0,0,1,6.57,2.16q2.4,2.16,2.4,6.47V35h-5.59V19.06a6.89,6.89,0,0,0-1.27-4.34,4.63,4.63,0,0,0-3.67-1.35,6.08,6.08,0,0,0-2.55.51A5.52,5.52,0,0,0,182,15.31a6.67,6.67,0,0,0-1.23,2.13,7.61,7.61,0,0,0-.44,2.6V35h-5.59Z"/></g></g></svg>