<svg xmlns="http://www.w3.org/2000/svg" viewBox="0 0 359.36 65.06"><defs><style>.cls-1{fill:white;}</style></defs><title>politicoin_blue</title><g id="Layer_2" data-name="Layer 2"><g id="Layer_1-2" data-name="Layer 1"><path class="cls-1" d="M13.14,0H41.29A26.74,26.74,0,0,1,52.37,2,17.49,17.49,0,0,1,59,6.88a16.71,16.71,0,0,1,3.17,6.44A27.4,27.4,0,0,1,63,19.75a26.84,26.84,0,0,1-.85,6.39A16.75,16.75,0,0,1,59,32.53a17.13,17.13,0,0,1-6.61,4.87,27.32,27.32,0,0,1-11.08,1.92h-17V63.81H0V54.16H13.14ZM24.31,30.21H40.66a14.55,14.55,0,0,0,3.84-.54,11,11,0,0,0,3.62-1.74,8.92,8.92,0,0,0,2.68-3.22,11,11,0,0,0,1-5,13.07,13.07,0,0,0-.89-5.18,8.28,8.28,0,0,0-2.41-3.26A8.57,8.57,0,0,0,45,9.56a18.84,18.84,0,0,0-4.2-.45H24.31Z"/><path class="cls-1" d="M89.82,65.06a25.18,25.18,0,0,1-9.87-1.83,21,21,0,0,1-7.33-5,21.57,21.57,0,0,1-4.56-7.69,29.6,29.6,0,0,1-1.56-9.83,29.34,29.34,0,0,1,1.56-9.74,21.6,21.6,0,0,1,4.56-7.69,21.07,21.07,0,0,1,7.33-5,27.55,27.55,0,0,1,19.75,0,21.08,21.08,0,0,1,7.33,5,21.65,21.65,0,0,1,4.56,7.69,29.34,29.34,0,0,1,1.56,9.74,29.6,29.6,0,0,1-1.56,9.83A21.62,21.62,0,0,1,107,58.18a21.06,21.06,0,0,1-7.33,5A25.19,25.19,0,0,1,89.82,65.06Zm0-8a11.68,11.68,0,0,0,5.9-1.43,12.43,12.43,0,0,0,4.11-3.75,16.41,16.41,0,0,0,2.37-5.23,23.48,23.48,0,0,0,0-11.84,15.84,15.84,0,0,0-2.37-5.23,12.65,12.65,0,0,0-4.11-3.71,12.89,12.89,0,0,0-11.8,0,12.63,12.63,0,0,0-4.11,3.71,15.76,15.76,0,0,0-2.37,5.23,23.42,23.42,0,0,0,0,11.84,16.33,16.33,0,0,0,2.37,5.23,12.41,12.41,0,0,0,4.11,3.75A11.67,11.67,0,0,0,89.82,57Z"/><path class="cls-1" d="M119.22,0h10.19V63.81H119.22Z"/><path class="cls-1" d="M138.08,0h10.19V9.65H138.08Zm0,17.61h10.19V63.81H138.08Z"/><path class="cls-1" d="M152,17.61h7.69V3.75H169.9V17.61h9.21v7.6H169.9V49.87a24.66,24.66,0,0,0,.13,2.77,4.78,4.78,0,0,0,.63,2,3,3,0,0,0,1.47,1.21,7.23,7.23,0,0,0,2.68.4q1.07,0,2.15,0a10.62,10.62,0,0,0,2.14-.31v7.86l-3.31.36a30.33,30.33,0,0,1-3.31.18A22.64,22.64,0,0,1,166,63.5a8.65,8.65,0,0,1-3.84-2.24,7.69,7.69,0,0,1-1.88-3.71,27.51,27.51,0,0,1-.58-5.09V25.2H152Z"/><path class="cls-1" d="M184,0h10.19V9.65H184Zm0,17.61h10.19V63.81H184Z"/><path class="cls-1" d="M233.8,33.07a9.56,9.56,0,0,0-3.44-6.48,11.23,11.23,0,0,0-7.11-2.19,14.63,14.63,0,0,0-4.2.67,10,10,0,0,0-4.11,2.5,14,14,0,0,0-3.13,5.09,24.22,24.22,0,0,0-1.25,8.54,25,25,0,0,0,.67,5.72A15.59,15.59,0,0,0,213.38,52a11.59,11.59,0,0,0,3.8,3.62A10.8,10.8,0,0,0,222.8,57a10.25,10.25,0,0,0,7.37-2.77,12.88,12.88,0,0,0,3.62-7.77H244q-1.43,9-6.84,13.81T222.8,65.06a23.65,23.65,0,0,1-9.61-1.83,20.33,20.33,0,0,1-7-5,21.22,21.22,0,0,1-4.34-7.55,29.49,29.49,0,0,1-1.47-9.47,32.38,32.38,0,0,1,1.43-9.74,22.29,22.29,0,0,1,4.29-7.91,20.08,20.08,0,0,1,7.11-5.27,24,24,0,0,1,10-1.92,27.9,27.9,0,0,1,7.64,1,20.16,20.16,0,0,1,6.44,3.08,16.47,16.47,0,0,1,4.6,5.18A17.76,17.76,0,0,1,244,33.07Z"/><path class="cls-1" d="M270.8,65.06a25.18,25.18,0,0,1-9.87-1.83,21,21,0,0,1-7.33-5A21.57,21.57,0,0,1,249,50.49a29.6,29.6,0,0,1-1.56-9.83A29.34,29.34,0,0,1,249,30.92a21.6,21.6,0,0,1,4.56-7.69,21.07,21.07,0,0,1,7.33-5,27.55,27.55,0,0,1,19.75,0,21.08,21.08,0,0,1,7.33,5,21.65,21.65,0,0,1,4.56,7.69,29.34,29.34,0,0,1,1.56,9.74,29.6,29.6,0,0,1-1.56,9.83A21.62,21.62,0,0,1,288,58.18a21.06,21.06,0,0,1-7.33,5A25.19,25.19,0,0,1,270.8,65.06Zm0-8a11.68,11.68,0,0,0,5.9-1.43,12.43,12.43,0,0,0,4.11-3.75,16.41,16.41,0,0,0,2.37-5.23,23.48,23.48,0,0,0,0-11.84,15.84,15.84,0,0,0-2.37-5.23,12.65,12.65,0,0,0-4.11-3.71,12.89,12.89,0,0,0-11.8,0,12.63,12.63,0,0,0-4.11,3.71,15.76,15.76,0,0,0-2.37,5.23,23.42,23.42,0,0,0,0,11.84,16.33,16.33,0,0,0,2.37,5.23,12.41,12.41,0,0,0,4.11,3.75A11.67,11.67,0,0,0,270.8,57Z"/><path class="cls-1" d="M300.2,0h10.19V9.65H300.2Zm0,17.61h10.19V63.81H300.2Z"/><path class="cls-1" d="M318.79,17.61h9.65V24.4l.18.18a17.08,17.08,0,0,1,6.08-6A16.2,16.2,0,0,1,343,16.35q7.6,0,12,3.93t4.38,11.8V63.81H349.18v-29q-.18-5.45-2.32-7.91t-6.7-2.46a11.08,11.08,0,0,0-4.65.94A10.08,10.08,0,0,0,332,27.93a12.16,12.16,0,0,0-2.24,3.89,13.89,13.89,0,0,0-.8,4.74V63.81H318.79Z"/></g></g></svg>
